<svg width="34" height="34" viewBox="4 3 26 28" fill="none" xmlns="http://www.w3.org/2000/svg">
<path d="M14.875 10.2708C14.6871 10.2708 14.507 10.3454 14.3741 10.4783C14.2413 10.6111 14.1667 10.7913 14.1667 10.9791C14.1667 11.167 14.2413 11.3472 14.3741 11.48C14.507 11.6129 14.6871 11.6875 14.875 11.6875H19.125C19.3129 11.6875 19.493 11.6129 19.6259 11.48C19.7587 11.3472 19.8333 11.167 19.8333 10.9791C19.8333 10.7913 19.7587 10.6111 19.6259 10.4783C19.493 10.3454 19.3129 10.2708 19.125 10.2708H14.875ZM13.4583 18.0625C13.4583 18.4382 13.3091 18.7985 13.0434 19.0642C12.7777 19.3299 12.4174 19.4791 12.0417 19.4791C11.6659 19.4791 11.3056 19.3299 11.0399 19.0642C10.7743 18.7985 10.625 18.4382 10.625 18.0625C10.625 17.6868 10.7743 17.3264 11.0399 17.0607C11.3056 16.7951 11.6659 16.6458 12.0417 16.6458C12.4174 16.6458 12.7777 16.7951 13.0434 17.0607C13.3091 17.3264 13.4583 17.6868 13.4583 18.0625ZM13.4583 23.0208C13.4583 23.3965 13.3091 23.7569 13.0434 24.0225C12.7777 24.2882 12.4174 24.4375 12.0417 24.4375C11.6659 24.4375 11.3056 24.2882 11.0399 24.0225C10.7743 23.7569 10.625 23.3965 10.625 23.0208C10.625 22.6451 10.7743 22.2848 11.0399 22.0191C11.3056 21.7534 11.6659 21.6041 12.0417 21.6041C12.4174 21.6041 12.7777 21.7534 13.0434 22.0191C13.3091 22.2848 13.4583 22.6451 13.4583 23.0208ZM17 19.4791C17.3757 19.4791 17.7361 19.3299 18.0017 19.0642C18.2674 18.7985 18.4167 18.4382 18.4167 18.0625C18.4167 17.6868 18.2674 17.3264 18.0017 17.0607C17.7361 16.7951 17.3757 16.6458 17 16.6458C16.6243 16.6458 16.2639 16.7951 15.9983 17.0607C15.7326 17.3264 15.5833 17.6868 15.5833 18.0625C15.5833 18.4382 15.7326 18.7985 15.9983 19.0642C16.2639 19.3299 16.6243 19.4791 17 19.4791ZM18.4167 23.0208C18.4167 23.3965 18.2674 23.7569 18.0017 24.0225C17.7361 24.2882 17.3757 24.4375 17 24.4375C16.6243 24.4375 16.2639 24.2882 15.9983 24.0225C15.7326 23.7569 15.5833 23.3965 15.5833 23.0208C15.5833 22.6451 15.7326 22.2848 15.9983 22.0191C16.2639 21.7534 16.6243 21.6041 17 21.6041C17.3757 21.6041 17.7361 21.7534 18.0017 22.0191C18.2674 22.2848 18.4167 22.6451 18.4167 23.0208ZM21.9583 19.4791C22.3341 19.4791 22.6944 19.3299 22.9601 19.0642C23.2257 18.7985 23.375 18.4382 23.375 18.0625C23.375 17.6868 23.2257 17.3264 22.9601 17.0607C22.6944 16.7951 22.3341 16.6458 21.9583 16.6458C21.5826 16.6458 21.2223 16.7951 20.9566 17.0607C20.6909 17.3264 20.5417 17.6868 20.5417 18.0625C20.5417 18.4382 20.6909 18.7985 20.9566 19.0642C21.2223 19.3299 21.5826 19.4791 21.9583 19.4791Z" fill="white"/>
<path fill-rule="evenodd" clip-rule="evenodd" d="M11.3333 4.95831C11.5212 4.95831 11.7014 5.03294 11.8342 5.16578C11.967 5.29862 12.0417 5.47878 12.0417 5.66665V7.08331H21.9583V5.66665C21.9583 5.47878 22.033 5.29862 22.1658 5.16578C22.2986 5.03294 22.4788 4.95831 22.6667 4.95831C22.8545 4.95831 23.0347 5.03294 23.1675 5.16578C23.3004 5.29862 23.375 5.47878 23.375 5.66665V7.08756C23.7216 7.0904 24.0304 7.10267 24.3015 7.1244C24.8186 7.1669 25.2719 7.25615 25.6912 7.46865C26.3575 7.8085 26.899 8.35053 27.2382 9.01706C27.4522 9.4364 27.5414 9.88973 27.5839 10.4054C27.625 10.9083 27.625 11.5274 27.625 12.2952V23.1214C27.625 23.8892 27.625 24.5097 27.5839 25.0098C27.5414 25.5269 27.4522 25.9802 27.2382 26.3996C26.8988 27.0656 26.3573 27.6071 25.6912 27.9466C25.2719 28.1605 24.8186 28.2497 24.3029 28.2922C23.8 28.3333 23.1809 28.3333 22.4145 28.3333H11.5869C10.8191 28.3333 10.1986 28.3333 9.6985 28.2922C9.18142 28.2497 8.72808 28.1605 8.30875 27.9466C7.64222 27.6073 7.10018 27.0658 6.76033 26.3996C6.54783 25.9802 6.45858 25.5269 6.41608 25.0112C6.375 24.5083 6.375 23.8878 6.375 23.12V12.2966C6.375 11.6237 6.375 11.067 6.40333 10.6009L6.41608 10.4082C6.45858 9.89115 6.54783 9.43781 6.76033 9.01848C7.09994 8.35173 7.642 7.80967 8.30875 7.47006C8.72808 7.25756 9.18142 7.16831 9.69708 7.12581C9.97003 7.10409 10.2793 7.09181 10.625 7.08898V5.66665C10.625 5.47878 10.6996 5.29862 10.8325 5.16578C10.9653 5.03294 11.1455 4.95831 11.3333 4.95831ZM10.625 9.20831V8.50423C10.3541 8.50646 10.0834 8.51733 9.81325 8.53681C9.38542 8.57081 9.13892 8.63598 8.95192 8.7309C8.55172 8.93469 8.22638 9.26003 8.02258 9.66023C7.92767 9.84723 7.8625 10.0937 7.8285 10.5216C7.79167 10.9593 7.79167 11.5203 7.79167 12.325V13.1041H26.2083V12.325C26.2083 11.5203 26.2083 10.9593 26.1715 10.5216C26.1375 10.0937 26.0723 9.84723 25.9774 9.66023C25.7736 9.26003 25.4483 8.93469 25.0481 8.7309C24.8611 8.63598 24.6146 8.57081 24.1867 8.53681C23.9166 8.51733 23.6459 8.50646 23.375 8.50423V9.20831C23.375 9.39617 23.3004 9.57634 23.1675 9.70918C23.0347 9.84202 22.8545 9.91665 22.6667 9.91665C22.4788 9.91665 22.2986 9.84202 22.1658 9.70918C22.033 9.57634 21.9583 9.39617 21.9583 9.20831V8.49998H12.0417V9.20831C12.0417 9.39617 11.967 9.57634 11.8342 9.70918C11.7014 9.84202 11.5212 9.91665 11.3333 9.91665C11.1455 9.91665 10.9653 9.84202 10.8325 9.70918C10.6996 9.57634 10.625 9.39617 10.625 9.20831ZM26.2083 14.5208H7.79167V23.0916C7.79167 23.8963 7.79167 24.4587 7.8285 24.8951C7.8625 25.3229 7.92767 25.5694 8.02258 25.7564C8.22638 26.1566 8.55172 26.4819 8.95192 26.6857C9.13892 26.7806 9.38542 26.8458 9.81325 26.8798C10.251 26.9166 10.812 26.9166 11.6167 26.9166H22.3833C23.188 26.9166 23.7504 26.9166 24.1867 26.8798C24.6146 26.8458 24.8611 26.7806 25.0481 26.6857C25.4483 26.4819 25.7736 26.1566 25.9774 25.7564C26.0723 25.5694 26.1375 25.3229 26.1715 24.8951C26.2083 24.4587 26.2083 23.8963 26.2083 23.0916V14.5208Z" fill="white"/>
</svg>
