<svg width="130" height="130" viewBox="0 0 130 130" fill="none" xmlns="http://www.w3.org/2000/svg">
<path fill-rule="evenodd" clip-rule="evenodd" d="M44.6875 16.25C42.5326 16.25 40.466 17.106 38.9423 18.6298C37.4185 20.1535 36.5625 22.2201 36.5625 24.375V32.5H44.6875V24.375H85.3125V32.5H93.4375V24.375C93.4375 22.2201 92.5815 20.1535 91.0577 18.6298C89.534 17.106 87.4674 16.25 85.3125 16.25H44.6875Z" fill="white"/>
<path d="M20.3125 32.5C13.5815 32.5 8.125 37.9565 8.125 44.6875V60.9375H48.75V67.0312C48.75 67.57 48.964 68.0866 49.3449 68.4676C49.7259 68.8485 50.2425 69.0625 50.7812 69.0625H79.2188C79.7575 69.0625 80.2741 68.8485 80.6551 68.4676C81.036 68.0866 81.25 67.57 81.25 67.0312V60.9375H121.875V44.6875C121.875 37.9565 116.418 32.5 109.688 32.5H20.3125Z" fill="white"/>
<path d="M81.25 71.0938V67.0312C81.25 67.57 81.036 68.0866 80.6551 68.4676C80.2741 68.8485 79.7575 69.0625 79.2188 69.0625H50.7812C50.2425 69.0625 49.7259 68.8485 49.3449 68.4676C48.964 68.0866 48.75 67.57 48.75 67.0312V71.0938H8.125V101.562C8.125 108.293 13.5815 113.75 20.3125 113.75H109.688C116.418 113.75 121.875 108.293 121.875 101.562V71.0938H81.25Z" fill="white"/>
</svg>
