<svg width="130" height="130" viewBox="0 0 130 130" fill="none" xmlns="http://www.w3.org/2000/svg">
<path d="M109.688 32.5H20.3125C13.5815 32.5 8.125 37.9565 8.125 44.6875V101.562C8.125 108.293 13.5815 113.75 20.3125 113.75H109.688C116.418 113.75 121.875 108.293 121.875 101.562V44.6875C121.875 37.9565 116.418 32.5 109.688 32.5Z" stroke="white" stroke-width="8.125" stroke-linejoin="round"/>
<path d="M36.5625 32.5V24.375C36.5625 22.2201 37.4185 20.1535 38.9423 18.6298C40.466 17.106 42.5326 16.25 44.6875 16.25H85.3125C87.4674 16.25 89.534 17.106 91.0577 18.6298C92.5815 20.1535 93.4375 22.2201 93.4375 24.375V32.5M121.875 60.9375H8.125M81.25 60.9375V67.0312C81.25 67.57 81.036 68.0866 80.6551 68.4676C80.2741 68.8485 79.7575 69.0625 79.2188 69.0625H50.7812C50.2425 69.0625 49.7259 68.8485 49.3449 68.4676C48.964 68.0866 48.75 67.57 48.75 67.0312V60.9375" stroke="white" stroke-width="8.125" stroke-linecap="round" stroke-linejoin="round"/>
</svg>
