<svg width="130" height="130" viewBox="0 0 130 130" fill="none" xmlns="http://www.w3.org/2000/svg">
<path d="M16.25 73.125V113.75C16.25 115.905 17.106 117.971 18.6298 119.495C20.1535 121.019 22.2201 121.875 24.375 121.875H105.625C107.78 121.875 109.847 121.019 111.37 119.495C112.894 117.971 113.75 115.905 113.75 113.75V73.125" stroke="white" stroke-width="8.125" stroke-linecap="round" stroke-linejoin="round"/>
<path d="M8.125 71.85L60.7037 19.2725C61.4555 18.5207 62.4737 18.0982 63.5354 18.0982H66.4646C67.5263 18.0982 68.5445 18.5207 69.2963 19.2725L121.875 71.85" stroke="white" stroke-width="8.125" stroke-linecap="round" stroke-linejoin="round"/>
<path d="M48.75 121.875V83.2812C48.75 82.7425 48.964 82.2258 49.3449 81.8449C49.7259 81.464 50.2425 81.25 50.7812 81.25H79.2188C79.7575 81.25 80.2741 81.464 80.6551 81.8449C81.036 82.2258 81.25 82.7425 81.25 83.2812V121.875" stroke="white" stroke-width="8.125" stroke-linecap="round" stroke-linejoin="round"/>
<path d="M89.375 35.4575V18.2812H105.625V51.0438" stroke="white" stroke-width="8.125" stroke-linecap="round" stroke-linejoin="round"/>
</svg>
