<svg preserveAspectRatio="none" width="100%" height="100%" overflow="visible" style="display: block;" viewBox="0 0 31 31" fill="none" xmlns="http://www.w3.org/2000/svg">
<g id="ic:round-add">
<path id="Vector" d="M23.2503 15.7228H16.792V22.1811C16.792 22.8915 16.2108 23.4728 15.5003 23.4728C14.7899 23.4728 14.2087 22.8915 14.2087 22.1811V15.7228H7.75035C7.03993 15.7228 6.45868 15.1415 6.45868 14.4311C6.45868 13.7207 7.03993 13.1395 7.75035 13.1395H14.2087V6.68112C14.2087 5.9707 14.7899 5.38945 15.5003 5.38945C16.2108 5.38945 16.792 5.9707 16.792 6.68112V13.1395H23.2503C23.9608 13.1395 24.542 13.7207 24.542 14.4311C24.542 15.1415 23.9608 15.7228 23.2503 15.7228Z" fill="var(--fill-0, white)"/>
</g>
</svg>
