<svg preserveAspectRatio="none" width="100%" height="100%" overflow="visible" style="display: block;" viewBox="0 0 42 42" fill="none" xmlns="http://www.w3.org/2000/svg">
<g id="Frame">
<path id="Vector" d="M12.1128 21.8748L21.6297 31.3922C21.8004 31.5625 21.8896 31.7634 21.8975 31.9947C21.9054 32.2257 21.8128 32.4377 21.6197 32.6308C21.4269 32.8169 21.2205 32.9117 21.0006 32.9152C20.7807 32.9184 20.5743 32.8236 20.3816 32.6308L9.74024 21.9895C9.58741 21.8366 9.48022 21.6806 9.41868 21.5213C9.35684 21.3621 9.32593 21.1883 9.32593 20.9998C9.32593 20.8114 9.35684 20.6376 9.41868 20.4783C9.48022 20.3191 9.58741 20.163 9.74024 20.0102L20.3816 9.3689C20.5452 9.20528 20.7442 9.11778 20.9787 9.1064C21.2132 9.09532 21.4269 9.18282 21.6197 9.3689C21.8128 9.56199 21.9093 9.77009 21.9093 9.99321C21.9093 10.2166 21.8128 10.4247 21.6197 10.6175L12.1128 20.1248H32.3756C32.6247 20.1248 32.8328 20.2084 32.9999 20.3755C33.1671 20.5427 33.2506 20.7508 33.2506 20.9998C33.2506 21.2489 33.1671 21.457 32.9999 21.6242C32.8328 21.7913 32.6247 21.8748 32.3756 21.8748H12.1128Z" fill="var(--fill-0, white)"/>
</g>
</svg>
