<svg preserveAspectRatio="none" width="100%" height="100%" overflow="visible" style="display: block;" viewBox="0 0 21 21" fill="none" xmlns="http://www.w3.org/2000/svg">
<g id="stash:data-date-light">
<path id="Vector" d="M9.1875 6.34375C9.07147 6.34375 8.96019 6.38984 8.87814 6.47189C8.79609 6.55394 8.75 6.66522 8.75 6.78125C8.75 6.89728 8.79609 7.00856 8.87814 7.09061C8.96019 7.17266 9.07147 7.21875 9.1875 7.21875H11.8125C11.9285 7.21875 12.0398 7.17266 12.1219 7.09061C12.2039 7.00856 12.25 6.89728 12.25 6.78125C12.25 6.66522 12.2039 6.55394 12.1219 6.47189C12.0398 6.38984 11.9285 6.34375 11.8125 6.34375H9.1875ZM8.3125 11.1562C8.3125 11.3883 8.22031 11.6109 8.05622 11.775C7.89212 11.9391 7.66956 12.0312 7.4375 12.0312C7.20544 12.0312 6.98288 11.9391 6.81878 11.775C6.65469 11.6109 6.5625 11.3883 6.5625 11.1562C6.5625 10.9242 6.65469 10.7016 6.81878 10.5375C6.98288 10.3734 7.20544 10.2812 7.4375 10.2812C7.66956 10.2812 7.89212 10.3734 8.05622 10.5375C8.22031 10.7016 8.3125 10.9242 8.3125 11.1562ZM8.3125 14.2188C8.3125 14.4508 8.22031 14.6734 8.05622 14.8375C7.89212 15.0016 7.66956 15.0938 7.4375 15.0938C7.20544 15.0938 6.98288 15.0016 6.81878 14.8375C6.65469 14.6734 6.5625 14.4508 6.5625 14.2188C6.5625 13.9867 6.65469 13.7641 6.81878 13.6C6.98288 13.4359 7.20544 13.3438 7.4375 13.3438C7.66956 13.3438 7.89212 13.4359 8.05622 13.6C8.22031 13.7641 8.3125 13.9867 8.3125 14.2188ZM10.5 12.0312C10.7321 12.0312 10.9546 11.9391 11.1187 11.775C11.2828 11.6109 11.375 11.3883 11.375 11.1562C11.375 10.9242 11.2828 10.7016 11.1187 10.5375C10.9546 10.3734 10.7321 10.2812 10.5 10.2812C10.2679 10.2812 10.0454 10.3734 9.88128 10.5375C9.71719 10.7016 9.625 10.9242 9.625 11.1562C9.625 11.3883 9.71719 11.6109 9.88128 11.775C10.0454 11.9391 10.2679 12.0312 10.5 12.0312ZM11.375 14.2188C11.375 14.4508 11.2828 14.6734 11.1187 14.8375C10.9546 15.0016 10.7321 15.0938 10.5 15.0938C10.2679 15.0938 10.0454 15.0016 9.88128 14.8375C9.71719 14.6734 9.625 14.4508 9.625 14.2188C9.625 13.9867 9.71719 13.7641 9.88128 13.6C10.0454 13.4359 10.2679 13.3438 10.5 13.3438C10.7321 13.3438 10.9546 13.4359 11.1187 13.6C11.2828 13.7641 11.375 13.9867 11.375 14.2188ZM13.5625 12.0312C13.7946 12.0312 14.0171 11.9391 14.1812 11.775C14.3453 11.6109 14.4375 11.3883 14.4375 11.1562C14.4375 10.9242 14.3453 10.7016 14.1812 10.5375C14.0171 10.3734 13.7946 10.2812 13.5625 10.2812C13.3304 10.2812 13.1079 10.3734 12.9438 10.5375C12.7797 10.7016 12.6875 10.9242 12.6875 11.1562C12.6875 11.3883 12.7797 11.6109 12.9438 11.775C13.1079 11.9391 13.3304 12.0312 13.5625 12.0312Z" fill="var(--fill-0, #A0AEC0)"/>
<path id="Vector_2" fill-rule="evenodd" clip-rule="evenodd" d="M7 3.0625C7.11603 3.0625 7.22731 3.10859 7.30936 3.19064C7.39141 3.27269 7.4375 3.38397 7.4375 3.5V4.375H13.5625V3.5C13.5625 3.38397 13.6086 3.27269 13.6906 3.19064C13.7727 3.10859 13.884 3.0625 14 3.0625C14.116 3.0625 14.2273 3.10859 14.3094 3.19064C14.3914 3.27269 14.4375 3.38397 14.4375 3.5V4.37763C14.6516 4.37938 14.8423 4.38696 15.0097 4.40038C15.3291 4.42663 15.6091 4.48175 15.8681 4.613C16.2796 4.82291 16.6141 5.15769 16.8236 5.56938C16.9557 5.82838 17.0109 6.10838 17.0371 6.42688C17.0625 6.7375 17.0625 7.11988 17.0625 7.59413V14.2809C17.0625 14.7551 17.0625 15.1384 17.0371 15.4472C17.0109 15.7666 16.9557 16.0466 16.8236 16.3056C16.6139 16.717 16.2795 17.0514 15.8681 17.2611C15.6091 17.3932 15.3291 17.4484 15.0106 17.4746C14.7 17.5 14.3176 17.5 13.8442 17.5H7.15663C6.68238 17.5 6.29913 17.5 5.99025 17.4746C5.67088 17.4484 5.39088 17.3932 5.13188 17.2611C4.72019 17.0516 4.38541 16.7171 4.1755 16.3056C4.04425 16.0466 3.98913 15.7666 3.96288 15.4481C3.9375 15.1375 3.9375 14.7542 3.9375 14.28V7.595C3.9375 7.17938 3.9375 6.8355 3.955 6.54763L3.96288 6.42863C3.98913 6.10925 4.04425 5.82925 4.1755 5.57025C4.38526 5.15843 4.72006 4.82363 5.13188 4.61388C5.39088 4.48263 5.67088 4.4275 5.98938 4.40125C6.15796 4.38783 6.349 4.38025 6.5625 4.3785V3.5C6.5625 3.38397 6.60859 3.27269 6.69064 3.19064C6.77269 3.10859 6.88397 3.0625 7 3.0625ZM6.5625 5.6875V5.25263C6.3952 5.25401 6.22799 5.26072 6.06113 5.27275C5.79688 5.29375 5.64463 5.334 5.52913 5.39263C5.28194 5.5185 5.081 5.71944 4.95513 5.96663C4.8965 6.08213 4.85625 6.23438 4.83525 6.49863C4.8125 6.769 4.8125 7.1155 4.8125 7.6125V8.09375H16.1875V7.6125C16.1875 7.1155 16.1875 6.769 16.1648 6.49863C16.1438 6.23438 16.1035 6.08213 16.0449 5.96663C15.919 5.71944 15.7181 5.5185 15.4709 5.39263C15.3554 5.334 15.2031 5.29375 14.9389 5.27275C14.772 5.26072 14.6048 5.25401 14.4375 5.25263V5.6875C14.4375 5.80353 14.3914 5.91481 14.3094 5.99686C14.2273 6.07891 14.116 6.125 14 6.125C13.884 6.125 13.7727 6.07891 13.6906 5.99686C13.6086 5.91481 13.5625 5.80353 13.5625 5.6875V5.25H7.4375V5.6875C7.4375 5.80353 7.39141 5.91481 7.30936 5.99686C7.22731 6.07891 7.11603 6.125 7 6.125C6.88397 6.125 6.77269 6.07891 6.69064 5.99686C6.60859 5.91481 6.5625 5.80353 6.5625 5.6875ZM16.1875 8.96875H4.8125V14.2625C4.8125 14.7595 4.8125 15.1069 4.83525 15.3764C4.85625 15.6406 4.8965 15.7929 4.95513 15.9084C5.081 16.1556 5.28194 16.3565 5.52913 16.4824C5.64463 16.541 5.79688 16.5813 6.06113 16.6023C6.3315 16.625 6.678 16.625 7.175 16.625H13.825C14.322 16.625 14.6694 16.625 14.9389 16.6023C15.2031 16.5813 15.3554 16.541 15.4709 16.4824C15.7181 16.3565 15.919 16.1556 16.0449 15.9084C16.1035 15.7929 16.1438 15.6406 16.1648 15.3764C16.1875 15.1069 16.1875 14.7595 16.1875 14.2625V8.96875Z" fill="var(--fill-0, #A0AEC0)"/>
</g>
</svg>
