<svg preserveAspectRatio="none" width="100%" height="100%" overflow="visible" style="display: block;" viewBox="0 0 19 17" fill="none" xmlns="http://www.w3.org/2000/svg">
<g id="formkit:email">
<path id="Vector" d="M17.2167 15.7857H1.78328C0.797915 15.7857 0.0024997 14.9721 0.0024997 13.9643V3.03571C0.0024997 2.02786 0.797915 1.21429 1.78328 1.21429H17.2167C18.2021 1.21429 18.9975 2.02786 18.9975 3.03571V13.9643C18.9975 14.9721 18.2021 15.7857 17.2167 15.7857ZM1.78328 2.42857C1.45087 2.42857 1.18969 2.69571 1.18969 3.03571V13.9643C1.18969 14.3043 1.45087 14.5714 1.78328 14.5714H17.2167C17.5491 14.5714 17.8103 14.3043 17.8103 13.9643V3.03571C17.8103 2.69571 17.5491 2.42857 17.2167 2.42857H1.78328Z" fill="var(--fill-0, #A0AEC0)"/>
<path id="Vector_2" d="M9.5 10.88C8.66897 10.88 7.90917 10.54 7.33932 9.92071L1.10658 3.145C0.881019 2.90214 0.89289 2.51357 1.13033 2.28286C1.36777 2.05214 1.74767 2.06429 1.97323 2.30714L8.20597 9.08286C8.88266 9.82357 10.1173 9.82357 10.794 9.08286L17.0268 2.31929C17.2523 2.07643 17.6322 2.06429 17.8697 2.295C18.1071 2.52571 18.119 2.91429 17.8934 3.15714L11.6607 9.93286C11.0908 10.5521 10.331 10.8921 9.5 10.8921V10.88Z" fill="var(--fill-0, #A0AEC0)"/>
</g>
</svg>
