<svg preserveAspectRatio="none" width="100%" height="100%" overflow="visible" style="display: block;" viewBox="0 0 17 17" fill="none" xmlns="http://www.w3.org/2000/svg">
<g id="ph:gender-intersex">
<path id="Vector" d="M13.8125 1.59375H11.1562C11.0154 1.59375 10.8802 1.64972 10.7806 1.74935C10.681 1.84898 10.625 1.9841 10.625 2.125C10.625 2.2659 10.681 2.40102 10.7806 2.50065C10.8802 2.60028 11.0154 2.65625 11.1562 2.65625H12.5302L10.8601 4.32637C10.3697 3.86935 9.77814 3.53482 9.13376 3.35009C8.48938 3.16536 7.81044 3.13568 7.1524 3.26346C6.49436 3.39124 5.87587 3.67287 5.34746 4.08534C4.81905 4.49781 4.3957 5.02942 4.11198 5.63675C3.82827 6.24409 3.69224 6.90992 3.71501 7.57987C3.73778 8.24982 3.91869 8.90488 4.24298 9.49156C4.56727 10.0782 5.02573 10.5799 5.58093 10.9555C6.13612 11.3312 6.7723 11.5702 7.4375 11.653V12.75H5.84375C5.70285 12.75 5.56773 12.806 5.4681 12.9056C5.36847 13.0052 5.3125 13.1404 5.3125 13.2812C5.3125 13.4221 5.36847 13.5573 5.4681 13.6569C5.56773 13.7565 5.70285 13.8125 5.84375 13.8125H7.4375V15.4062C7.4375 15.5471 7.49347 15.6823 7.5931 15.7819C7.69273 15.8815 7.82785 15.9375 7.96875 15.9375C8.10965 15.9375 8.24477 15.8815 8.3444 15.7819C8.44403 15.6823 8.5 15.5471 8.5 15.4062V13.8125H10.0937C10.2346 13.8125 10.3698 13.7565 10.4694 13.6569C10.569 13.5573 10.625 13.4221 10.625 13.2812C10.625 13.1404 10.569 13.0052 10.4694 12.9056C10.3698 12.806 10.2346 12.75 10.0937 12.75H8.5V11.653C9.21209 11.564 9.89001 11.296 10.4704 10.8739C11.0508 10.4518 11.5147 9.8895 11.8187 9.23947C12.1228 8.58944 12.2571 7.87293 12.209 7.15692C12.161 6.4409 11.9322 5.74875 11.5441 5.14516L13.2813 3.4073V4.78125C13.2813 4.92215 13.3372 5.05727 13.4368 5.1569C13.5365 5.25653 13.6716 5.3125 13.8125 5.3125C13.9534 5.3125 14.0885 5.25653 14.1882 5.1569C14.2878 5.05727 14.3438 4.92215 14.3438 4.78125V2.125C14.3438 1.9841 14.2878 1.84898 14.1882 1.74935C14.0885 1.64972 13.9534 1.59375 13.8125 1.59375ZM7.96875 10.625C7.33832 10.625 6.72205 10.4381 6.19787 10.0878C5.67369 9.73756 5.26514 9.23974 5.02388 8.6573C4.78263 8.07486 4.71951 7.43396 4.8425 6.81565C4.96549 6.19734 5.26907 5.62938 5.71485 5.1836C6.16063 4.73782 6.72859 4.43424 7.3469 4.31125C7.96521 4.18826 8.60611 4.25138 9.18855 4.49263C9.77099 4.73389 10.2688 5.14244 10.6191 5.66662C10.9693 6.1908 11.1562 6.80707 11.1562 7.4375C11.1554 8.28261 10.8193 9.09285 10.2217 9.69043C9.6241 10.288 8.81386 10.6241 7.96875 10.625Z" fill="var(--fill-0, #A0AEC0)"/>
</g>
</svg>
