<svg preserveAspectRatio="none" width="100%" height="100%" overflow="visible" style="display: block;" viewBox="0 0 21 21" fill="none" xmlns="http://www.w3.org/2000/svg">
<g id="Frame">
<path id="Vector" d="M10.4994 17.0744C12.2112 15.542 13.5211 14.0722 14.4293 12.6649C15.3374 11.2576 15.7914 10.025 15.7914 8.96713C15.7914 7.37201 15.2846 6.06067 14.2711 5.03313C13.2576 4.00559 12.0003 3.49182 10.4994 3.49182C8.99849 3.49182 7.74126 4.00559 6.72772 5.03313C5.71418 6.06067 5.20741 7.37201 5.20741 8.96713C5.20741 10.025 5.66146 11.2576 6.56956 12.6649C7.47767 14.0722 8.78762 15.542 10.4994 17.0744ZM10.4994 18.3229C10.3289 18.3229 10.1584 18.2935 9.98797 18.2347C9.81734 18.1758 9.66305 18.0846 9.52509 17.9613C8.73993 17.2376 8.00515 16.4924 7.32075 15.7256C6.6365 14.959 6.04172 14.1926 5.53641 13.4264C5.03095 12.6601 4.631 11.9007 4.33656 11.1481C4.04213 10.3953 3.89491 9.6683 3.89491 8.96713C3.89491 6.94792 4.54802 5.3132 5.85425 4.06297C7.16063 2.81275 8.70901 2.18763 10.4994 2.18763C12.2898 2.18763 13.8382 2.81275 15.1446 4.06297C16.4508 5.3132 17.1039 6.94792 17.1039 8.96713C17.1039 9.6683 16.9567 10.3938 16.6623 11.1437C16.3678 11.8937 15.9693 12.6532 15.4668 13.4222C14.9641 14.1912 14.3706 14.9576 13.6864 15.7215C13.0021 16.4855 12.2673 17.2292 11.482 17.9527C11.3461 18.0761 11.1916 18.1686 11.0185 18.2303C10.8455 18.292 10.6725 18.3229 10.4994 18.3229ZM10.5009 10.3822C10.9363 10.3822 11.3084 10.2272 11.6174 9.91716C11.9266 9.60712 12.0812 9.23444 12.0812 8.79913C12.0812 8.36382 11.9262 7.99158 11.6161 7.68241C11.3061 7.37339 10.9333 7.21888 10.4979 7.21888C10.0626 7.21888 9.6904 7.3739 9.38138 7.68394C9.07221 7.99399 8.91763 8.36674 8.91763 8.80219C8.91763 9.23751 9.07265 9.60967 9.38269 9.91869C9.69273 10.2277 10.0655 10.3822 10.5009 10.3822Z" fill="var(--fill-0, #A0AEC0)"/>
</g>
</svg>
