<svg preserveAspectRatio="none" width="100%" height="100%" overflow="visible" style="display: block;" viewBox="0 0 46 46" fill="none" xmlns="http://www.w3.org/2000/svg">
<g id="tabler:message">
<path id="Vector" d="M15.3333 17.25H30.6667M15.3333 24.9167H26.8333M34.5 7.66667C36.025 7.66667 37.4875 8.27247 38.5659 9.3508C39.6442 10.4291 40.25 11.8917 40.25 13.4167V28.75C40.25 30.275 39.6442 31.7375 38.5659 32.8159C37.4875 33.8942 36.025 34.5 34.5 34.5H24.9167L15.3333 40.25V34.5H11.5C9.97501 34.5 8.51247 33.8942 7.43414 32.8159C6.3558 31.7375 5.75 30.275 5.75 28.75V13.4167C5.75 11.8917 6.3558 10.4291 7.43414 9.3508C8.51247 8.27247 9.97501 7.66667 11.5 7.66667H34.5Z" stroke="var(--stroke-0, white)" stroke-width="3" stroke-linecap="round" stroke-linejoin="round"/>
</g>
</svg>
