<svg preserveAspectRatio="none" width="100%" height="100%" overflow="visible" style="display: block;" viewBox="0 0 40 40" fill="none" xmlns="http://www.w3.org/2000/svg">
<g id="mdi:bell-outline">
<path id="Vector" d="M16.6667 35H23.3333C23.3333 36.8333 21.8333 38.3333 20 38.3333C18.1667 38.3333 16.6667 36.8333 16.6667 35ZM35 31.6667V33.3333H5V31.6667L8.33333 28.3333V18.3333C8.33333 13.1667 11.6667 8.66667 16.6667 7.16667V6.66667C16.6667 4.83333 18.1667 3.33333 20 3.33333C21.8333 3.33333 23.3333 4.83333 23.3333 6.66667V7.16667C28.3333 8.66667 31.6667 13.1667 31.6667 18.3333V28.3333L35 31.6667ZM28.3333 18.3333C28.3333 13.6667 24.6667 10 20 10C15.3333 10 11.6667 13.6667 11.6667 18.3333V30H28.3333V18.3333Z" fill="var(--fill-0, white)"/>
</g>
</svg>
