<svg preserveAspectRatio="none" width="100%" height="100%" overflow="visible" style="display: block;" viewBox="0 0 35 35" fill="none" xmlns="http://www.w3.org/2000/svg">
<g id="Group 120">
<path id="Vector" d="M17.4922 1.25C18.1174 1.25 18.6573 1.41449 19.1455 1.74219V1.74316L32.7227 11.0811L32.7305 11.0869L32.7393 11.0928C33.0931 11.3276 33.3348 11.5964 33.4971 11.8975L33.498 11.8984C33.6668 12.211 33.75 12.5394 33.75 12.9023V32.8613C33.75 33.0422 33.6953 33.2182 33.4561 33.4355C33.2155 33.654 32.9638 33.75 32.6455 33.75H24.1709C23.9048 33.75 23.7539 33.6768 23.6318 33.5635C23.5086 33.4491 23.4707 33.3551 23.4707 33.207V22.123C23.4707 21.261 23.1145 20.5143 22.4893 19.9463C21.8602 19.3749 21.0861 19.1016 20.2471 19.1016H14.7529C13.9141 19.1016 13.1388 19.3751 12.5137 19.9551L12.5127 19.9561C11.8981 20.5271 11.5537 21.271 11.5537 22.123V33.207C11.5537 33.3454 11.5199 33.4369 11.3916 33.5537C11.2566 33.6762 11.0952 33.75 10.8291 33.75H2.35449C2.03619 33.75 1.78447 33.654 1.54395 33.4355C1.30467 33.2182 1.25 33.0422 1.25 32.8613V12.9023C1.25 12.5394 1.33315 12.211 1.50195 11.8984L1.50293 11.8975C1.66518 11.5964 1.90695 11.3276 2.26074 11.0928L2.26953 11.0869L2.27734 11.0811L15.8535 1.74219C16.3293 1.41584 16.8631 1.25003 17.4922 1.25Z" stroke="var(--stroke-0, white)" stroke-width="2.5"/>
</g>
</svg>
