<svg preserveAspectRatio="none" width="100%" height="100%" overflow="visible" style="display: block;" viewBox="0 0 43 43" fill="none" xmlns="http://www.w3.org/2000/svg">
<g id="Frame">
<path id="Vector" d="M13.4268 30.4698C12.3184 31.4479 11.1696 31.888 9.98019 31.7899C8.79112 31.6915 7.75863 31.261 6.88273 30.4982C6.00683 29.7355 5.42157 28.7351 5.12695 27.497C4.83234 26.2588 5.0505 24.9927 5.78145 23.6985L9.15026 17.8197C8.44317 17.2139 7.87972 16.4642 7.45989 15.5708C7.04005 14.6773 6.83014 13.7117 6.83014 12.6741C6.83014 10.8146 7.4428 9.23726 8.66811 7.94217C9.89372 6.64739 11.3858 6 13.1444 6C14.903 6 16.3951 6.64739 17.6207 7.94217C18.8463 9.23726 19.4591 10.8139 19.4591 12.6722C19.4591 14.5305 18.8463 16.1072 17.6207 17.4023C16.3951 18.6973 14.903 19.3449 13.1444 19.3449C12.8297 19.3449 12.518 19.3194 12.2093 19.2683C11.9002 19.2176 11.6063 19.143 11.3276 19.0446L7.90932 25.0617C7.53428 25.7154 7.41952 26.3536 7.56506 26.9763C7.7109 27.5989 8.01229 28.1051 8.46925 28.4949C8.9206 28.8909 9.44841 29.1155 10.0527 29.1687C10.6569 29.2217 11.244 28.9974 11.8137 28.4958L29.596 12.5162C30.6849 11.5378 31.8211 11.0994 33.0046 11.2012C34.1884 11.303 35.2177 11.7365 36.0928 12.5018C36.9681 13.267 37.5588 14.2665 37.8649 15.5002C38.171 16.734 37.957 18.0054 37.2228 19.3145L33.8553 25.198C34.5568 25.8135 35.1174 26.5644 35.5373 27.4507C35.9571 28.3371 36.167 29.3021 36.167 30.346C36.167 32.1921 35.5502 33.7627 34.3167 35.0578C33.0828 36.3526 31.5907 37 29.8404 37C28.0901 37 26.6021 36.3501 25.3765 35.0504C24.1509 33.7506 23.5381 32.1772 23.5381 30.3301C23.5381 28.4918 24.152 26.9198 25.38 25.6141C26.608 24.3081 28.0932 23.6551 29.8355 23.6551C30.1522 23.6551 30.4629 23.6828 30.7675 23.7382C31.0722 23.7937 31.3666 23.869 31.651 23.9643L35.0741 17.9383C35.4436 17.2846 35.5582 16.6467 35.4179 16.0247C35.2774 15.4026 34.9819 14.8947 34.5314 14.5009C34.081 14.1068 33.552 13.8818 32.9445 13.8261C32.337 13.7704 31.7511 13.9935 31.1869 14.4953L13.4268 30.4698ZM13.1444 16.7317C14.2074 16.7317 15.1133 16.3358 15.8622 15.5441C16.6115 14.7528 16.9861 13.7955 16.9861 12.6722C16.9861 11.549 16.6115 10.5917 15.8622 9.80028C15.1133 9.00891 14.2074 8.61322 13.1444 8.61322C12.0814 8.61322 11.1755 9.00891 10.4265 9.80028C9.67762 10.5917 9.30316 11.549 9.30316 12.6722C9.30316 13.7955 9.67762 14.7528 10.4265 15.5441C11.1755 16.3358 12.0814 16.7317 13.1444 16.7317ZM29.8338 34.3868C30.8953 34.3868 31.804 33.9925 32.56 33.2039C33.316 32.4153 33.694 31.4615 33.694 30.3423C33.694 29.2094 33.316 28.2472 32.56 27.4559C31.804 26.6642 30.8953 26.2683 29.8338 26.2683C28.7722 26.2683 27.8698 26.6642 27.1265 27.4559C26.3829 28.2472 26.0111 29.2069 26.0111 30.3348C26.0111 31.4627 26.3829 32.42 27.1265 33.2067C27.8698 33.9934 28.7722 34.3868 29.8338 34.3868Z" fill="var(--fill-0, white)"/>
</g>
</svg>
