<svg preserveAspectRatio="none" width="100%" height="100%" overflow="visible" style="display: block;" viewBox="0 0 42 42" fill="none" xmlns="http://www.w3.org/2000/svg">
<g id="Frame">
<path id="Vector" d="M7.74749 38.1818C6.92287 38.1818 6.22084 37.8668 5.64142 37.2369C5.06229 36.6066 4.77273 35.8416 4.77273 34.9418V15.2281C4.77273 14.3283 5.06229 13.5634 5.64142 12.9335C6.22084 12.3032 6.92418 11.9881 7.75142 11.9881H15.1033V8.96494C15.1033 8.0648 15.3928 7.30007 15.972 6.67076C16.5514 6.04177 17.2535 5.72727 18.0785 5.72727H23.9215C24.7465 5.72727 25.4486 6.0424 26.028 6.67266C26.6072 7.3026 26.8967 8.06749 26.8967 8.96731V11.9881H34.2486C35.0758 11.9881 35.7792 12.3032 36.3586 12.9335C36.9377 13.5634 37.2273 14.3283 37.2273 15.2281V34.9418C37.2273 35.8416 36.9377 36.6066 36.3586 37.2369C35.7792 37.8668 35.0771 38.1818 34.2525 38.1818H7.74749ZM17.5449 11.9881H24.4551V8.96731C24.4551 8.82114 24.3993 8.68731 24.2876 8.56581C24.1756 8.444 24.0524 8.38309 23.918 8.38309H18.082C17.9476 8.38309 17.8244 8.444 17.7124 8.56581C17.6007 8.68731 17.5449 8.82114 17.5449 8.96731V11.9881ZM34.7857 27.5348H25.1733V29.1171C25.1733 29.5711 25.0287 29.9554 24.7396 30.2699C24.4505 30.5844 24.0972 30.7416 23.6798 30.7416H18.3202C17.9028 30.7416 17.551 30.5844 17.2647 30.2699C16.9782 29.9554 16.835 29.5711 16.835 29.1171V27.5348H7.21432V34.9418C7.21432 35.0879 7.27017 35.2219 7.38187 35.3438C7.49385 35.4652 7.61704 35.526 7.75142 35.526H34.2486C34.383 35.526 34.5061 35.4652 34.6181 35.3438C34.7298 35.2219 34.7857 35.0879 34.7857 34.9418V27.5348ZM19.2766 28.0858H22.7317V24.3275H19.2766V28.0858ZM7.21432 24.879H16.835V23.2825C16.835 22.837 16.9782 22.4571 17.2647 22.143C17.551 21.8288 17.9028 21.6717 18.3202 21.6717H23.6798C24.0972 21.6717 24.4505 21.8288 24.7396 22.143C25.0287 22.4571 25.1733 22.837 25.1733 23.2825V24.879H34.7857V15.2281C34.7857 15.082 34.7298 14.9481 34.6181 14.8266C34.5061 14.7048 34.383 14.6439 34.2486 14.6439H7.75142C7.61704 14.6439 7.49385 14.7048 7.38187 14.8266C7.27017 14.9481 7.21432 15.082 7.21432 15.2281V24.879Z" fill="var(--fill-0, white)"/>
</g>
</svg>
