<svg preserveAspectRatio="none" width="100%" height="100%" overflow="visible" style="display: block;" viewBox="0 0 19 19" fill="none" xmlns="http://www.w3.org/2000/svg">
<g id="solar:phone-outline">
<path id="Vector" fill-rule="evenodd" clip-rule="evenodd" d="M4.53863 1.61738C5.50208 0.659458 7.08858 0.829667 7.89529 1.90792L8.89438 3.24108C9.55146 4.11825 9.49288 5.34375 8.71308 6.11879L8.52467 6.30721C8.5033 6.3863 8.50113 6.46936 8.51833 6.54946C8.56821 6.87246 8.83817 7.55646 9.96867 8.68062C11.0992 9.80479 11.7879 10.074 12.1157 10.1246C12.1983 10.1412 12.2835 10.1388 12.365 10.1175L12.688 9.79608C13.3815 9.10733 14.4455 8.97829 15.3037 9.44458L16.8158 10.2679C18.1117 10.9709 18.4387 12.7316 17.3779 13.7869L16.2529 14.9047C15.8983 15.257 15.4217 15.5507 14.8406 15.6053C13.4077 15.7391 10.0692 15.5681 6.55975 12.0792C3.28463 8.82233 2.65604 5.98183 2.57608 4.58217C2.5365 3.87442 2.87058 3.27592 3.2965 2.85317L4.53863 1.61738ZM6.94529 2.61963C6.54392 2.08367 5.79658 2.04092 5.37542 2.45971L4.1325 3.69471C3.87125 3.95437 3.74617 4.24096 3.762 4.51487C3.82533 5.62717 4.332 8.18979 7.39733 11.2377C10.6131 14.4345 13.5826 14.5303 14.7305 14.4226C14.9649 14.4012 15.1976 14.2793 15.4153 14.0632L16.5395 12.9445C16.9971 12.4901 16.8965 11.662 16.249 11.3105L14.7369 10.488C14.3189 10.2616 13.8296 10.336 13.5256 10.6384L13.1654 10.997L12.7458 10.5759C13.1654 10.997 13.1646 10.9978 13.1638 10.9978L13.163 10.9994L13.1607 11.0018L13.1551 11.0065L13.1432 11.0176C13.1098 11.0486 13.0738 11.0767 13.0356 11.1015C12.9722 11.1435 12.8883 11.1902 12.783 11.229C12.5693 11.309 12.2859 11.3517 11.936 11.2979C11.2496 11.1926 10.34 10.7247 9.13108 9.52296C7.923 8.32121 7.45117 7.41712 7.34508 6.73154C7.29046 6.38163 7.334 6.09821 7.41475 5.88446C7.45919 5.76418 7.52282 5.65189 7.60317 5.55196L7.6285 5.52425L7.63958 5.51237L7.64433 5.50762L7.64671 5.50525L7.64829 5.50367L7.87629 5.27725C8.21513 4.93921 8.26263 4.3795 7.94358 3.95279L6.94529 2.61963Z" fill="var(--fill-0, #A0AEC0)"/>
</g>
</svg>
