<svg preserveAspectRatio="none" width="100%" height="100%" overflow="visible" style="display: block;" viewBox="0 0 27 27" fill="none" xmlns="http://www.w3.org/2000/svg">
<g id="material-symbols:upload-rounded">
<path id="Vector" d="M6.75 22.5C6.13125 22.5 5.60175 22.2799 5.1615 21.8396C4.72125 21.3994 4.50075 20.8695 4.5 20.25V18C4.5 17.6812 4.608 17.4143 4.824 17.199C5.04 16.9837 5.307 16.8757 5.625 16.875C5.943 16.8742 6.21037 16.9823 6.42712 17.199C6.64387 17.4157 6.7515 17.6827 6.75 18V20.25H20.25V18C20.25 17.6812 20.358 17.4143 20.574 17.199C20.79 16.9837 21.057 16.8757 21.375 16.875C21.693 16.8742 21.9604 16.9823 22.1771 17.199C22.3939 17.4157 22.5015 17.6827 22.5 18V20.25C22.5 20.8687 22.2799 21.3986 21.8396 21.8396C21.3994 22.2806 20.8695 22.5007 20.25 22.5H6.75ZM12.375 8.83125L10.2656 10.9406C10.0406 11.1656 9.77363 11.2736 9.46463 11.2646C9.15563 11.2556 8.88825 11.1382 8.6625 10.9125C8.45625 10.6875 8.34825 10.425 8.3385 10.125C8.32875 9.825 8.43675 9.5625 8.6625 9.3375L12.7125 5.2875C12.825 5.175 12.9469 5.0955 13.0781 5.049C13.2094 5.0025 13.35 4.97888 13.5 4.97813C13.65 4.97738 13.7906 5.001 13.9219 5.049C14.0531 5.097 14.175 5.1765 14.2875 5.2875L18.3375 9.3375C18.5625 9.5625 18.6705 9.825 18.6615 10.125C18.6525 10.425 18.5445 10.6875 18.3375 10.9125C18.1125 11.1375 17.8455 11.2549 17.5365 11.2646C17.2275 11.2744 16.9601 11.1664 16.7344 10.9406L14.625 8.83125V16.875C14.625 17.1937 14.517 17.4611 14.301 17.6771C14.085 17.8931 13.818 18.0007 13.5 18C13.182 17.9992 12.915 17.8912 12.699 17.676C12.483 17.4607 12.375 17.1937 12.375 16.875V8.83125Z" fill="var(--fill-0, white)"/>
</g>
</svg>
