<svg preserveAspectRatio="none" width="100%" height="100%" overflow="visible" style="display: block;" viewBox="0 0 7 13" fill="none" xmlns="http://www.w3.org/2000/svg">
<path id="Vector" d="M1.08496 6.50101L6.8351 12.076C6.94503 12.1825 6.99932 12.3098 6.99795 12.4581C6.99646 12.6063 6.94075 12.7337 6.83082 12.8401C6.72101 12.9467 6.58965 13 6.43674 13C6.28383 13 6.15247 12.9467 6.04267 12.8401L0.346748 7.32221C0.226383 7.20552 0.138501 7.07539 0.0831003 6.93184C0.0277 6.78817 0 6.64456 0 6.50101C0 6.35746 0.0277 6.21385 0.0831003 6.07017C0.138501 5.92662 0.226383 5.7965 0.346748 5.6798L6.04267 0.15773C6.15247 0.0511506 6.28458 -0.00141614 6.43898 2.89997e-05C6.59326 0.00135371 6.7253 0.0553061 6.8351 0.161885C6.94503 0.268344 7 0.395697 7 0.543945C7 0.692192 6.94503 0.819546 6.8351 0.926005L1.08496 6.50101Z" fill="var(--fill-0, #E3E3E3)"/>
</svg>
