<svg width="130" height="130" viewBox="0 0 130 130" fill="none" xmlns="http://www.w3.org/2000/svg">
<g clip-path="url(#clip0_3091_456)">
<path d="M111.944 28.8889H83.0555V36.1111H111.944V111.944H83.0555V119.167H119.167V36.1111C119.167 34.1957 118.406 32.3587 117.051 31.0042C115.697 29.6498 113.86 28.8889 111.944 28.8889Z" fill="white"/>
<path d="M71.7889 10.8333H22.1C20.0696 10.8333 18.1224 11.6399 16.6867 13.0756C15.251 14.5113 14.4445 16.4585 14.4445 18.4889V119.167H79.4445V18.4889C79.4445 16.4585 78.6379 14.5113 77.2022 13.0756C75.7665 11.6399 73.8193 10.8333 71.7889 10.8333ZM72.2222 111.944H61.3889V101.111H32.5V111.944H21.6667V18.4889C21.6667 18.432 21.6779 18.3756 21.6997 18.3231C21.7214 18.2705 21.7534 18.2227 21.7936 18.1825C21.8338 18.1422 21.8816 18.1103 21.9342 18.0886C21.9868 18.0668 22.0431 18.0556 22.1 18.0556H71.7889C71.8458 18.0556 71.9022 18.0668 71.9547 18.0886C72.0073 18.1103 72.0551 18.1422 72.0953 18.1825C72.1356 18.2227 72.1675 18.2705 72.1893 18.3231C72.211 18.3756 72.2222 18.432 72.2222 18.4889V111.944Z" fill="white"/>
<path d="M28.8889 28.8889H36.1111V36.1111H28.8889V28.8889Z" fill="white"/>
<path d="M43.3333 28.8889H50.5555V36.1111H43.3333V28.8889Z" fill="white"/>
<path d="M57.7778 28.8889H65V36.1111H57.7778V28.8889Z" fill="white"/>
<path d="M28.8889 46.9445H36.1111V54.1667H28.8889V46.9445Z" fill="white"/>
<path d="M43.3333 46.9445H50.5555V54.1667H43.3333V46.9445Z" fill="white"/>
<path d="M57.7778 46.9445H65V54.1667H57.7778V46.9445Z" fill="white"/>
<path d="M28.8889 65H36.1111V72.2222H28.8889V65Z" fill="white"/>
<path d="M43.3333 65H50.5555V72.2222H43.3333V65Z" fill="white"/>
<path d="M57.7778 65H65V72.2222H57.7778V65Z" fill="white"/>
<path d="M28.8889 83.0555H36.1111V90.2778H28.8889V83.0555Z" fill="white"/>
<path d="M43.3333 83.0555H50.5555V90.2778H43.3333V83.0555Z" fill="white"/>
<path d="M57.7778 83.0555H65V90.2778H57.7778V83.0555Z" fill="white"/>
<path d="M83.0555 46.9445H90.2778V54.1667H83.0555V46.9445Z" fill="white"/>
<path d="M97.5 46.9445H104.722V54.1667H97.5V46.9445Z" fill="white"/>
<path d="M83.0555 65H90.2778V72.2222H83.0555V65Z" fill="white"/>
<path d="M97.5 65H104.722V72.2222H97.5V65Z" fill="white"/>
<path d="M83.0555 83.0555H90.2778V90.2778H83.0555V83.0555Z" fill="white"/>
<path d="M97.5 83.0555H104.722V90.2778H97.5V83.0555Z" fill="white"/>
</g>
<defs>
<clipPath id="clip0_3091_456">
<rect width="130" height="130" fill="white"/>
</clipPath>
</defs>
</svg>
