<svg width="130" height="130" viewBox="0 0 130 130" fill="none" xmlns="http://www.w3.org/2000/svg">
<path d="M66.4117 25.7156C66.0337 25.354 65.5307 25.1522 65.0076 25.1522C64.4845 25.1522 63.9815 25.354 63.6035 25.7156L16.8594 70.3701C16.6609 70.56 16.5029 70.7882 16.3951 71.0409C16.2873 71.2936 16.2319 71.5655 16.2322 71.8402L16.2246 113.75C16.2246 115.905 17.0806 117.971 18.6044 119.495C20.1281 121.019 22.1947 121.875 24.3496 121.875H48.75C49.8274 121.875 50.8608 121.447 51.6226 120.685C52.3845 119.923 52.8125 118.89 52.8125 117.812V83.2812C52.8125 82.7425 53.0265 82.2258 53.4074 81.8449C53.7884 81.464 54.305 81.25 54.8438 81.25H75.1562C75.695 81.25 76.2116 81.464 76.5926 81.8449C76.9735 82.2258 77.1875 82.7425 77.1875 83.2812V117.812C77.1875 118.89 77.6155 119.923 78.3774 120.685C79.1392 121.447 80.1726 121.875 81.25 121.875H105.64C107.795 121.875 109.862 121.019 111.385 119.495C112.909 117.971 113.765 115.905 113.765 113.75V71.8402C113.766 71.5655 113.71 71.2936 113.602 71.0409C113.495 70.7882 113.337 70.56 113.138 70.3701L66.4117 25.7156Z" fill="white"/>
<path d="M124.645 61.9912L105.653 43.8217V16.25C105.653 15.1726 105.225 14.1392 104.463 13.3774C103.701 12.6155 102.668 12.1875 101.59 12.1875H89.4029C88.3255 12.1875 87.2922 12.6155 86.5303 13.3774C85.7684 14.1392 85.3404 15.1726 85.3404 16.25V24.375L70.6342 10.3137C69.258 8.92227 67.2115 8.125 65 8.125C62.7961 8.125 60.7547 8.92227 59.3785 10.3162L5.37266 61.9861C3.79336 63.5096 3.59532 66.0156 5.03243 67.666C5.39331 68.0826 5.83518 68.4214 6.33115 68.6618C6.82713 68.9022 7.36683 69.0391 7.91741 69.0643C8.46799 69.0895 9.01794 69.0023 9.53379 68.8082C10.0496 68.6141 10.5206 68.3171 10.918 67.9352L63.6035 17.5906C63.9815 17.229 64.4845 17.0272 65.0076 17.0272C65.5307 17.0272 66.0337 17.229 66.4117 17.5906L119.102 67.9352C119.879 68.6795 120.918 69.0857 121.993 69.0647C123.068 69.0438 124.091 68.5974 124.838 67.8234C126.397 66.2086 126.268 63.5426 124.645 61.9912Z" fill="white"/>
</svg>
