<svg width="114" height="108" viewBox="0 0 114 108" fill="none" xmlns="http://www.w3.org/2000/svg">
<path d="M33.375 33.375H80.375M33.375 56.875H68.625M92.125 4C96.7994 4 101.282 5.85691 104.588 9.16224C107.893 12.4676 109.75 16.9506 109.75 21.625V68.625C109.75 73.2994 107.893 77.7824 104.588 81.0878C101.282 84.3931 96.7994 86.25 92.125 86.25H62.75L33.375 103.875V86.25H21.625C16.9506 86.25 12.4676 84.3931 9.16224 81.0878C5.85691 77.7824 4 73.2994 4 68.625V21.625C4 16.9506 5.85691 12.4676 9.16224 9.16224C12.4676 5.85691 16.9506 4 21.625 4H92.125Z" stroke="white" stroke-width="8" stroke-linecap="round" stroke-linejoin="round"/>
</svg>
