<svg viewBox="4 -6 132 132" fill="none" xmlns="http://www.w3.org/2000/svg">
  <path d="M67.649 107.379C66.9276 107.199 66.2791 106.941 65.7036 106.604C61.418 104.099 56.957 102.233 52.3205 101.007C47.6839 99.7802 42.8826 99.1667 37.9165 99.1667C34.8803 99.1667 31.898 99.4209 28.9696 99.9294C26.0423 100.438 23.1912 101.253 20.4165 102.375C18.3 103.22 16.3128 102.984 14.4548 101.668C12.5959 100.352 11.6665 98.5391 11.6665 96.2281V40.0706C11.6665 38.6269 12.0646 37.3256 12.8609 36.1667C13.6571 35.0078 14.7023 34.1853 15.9963 33.6992C19.4214 32.1884 22.9851 31.0552 26.6873 30.2998C30.3896 29.5444 34.1326 29.1667 37.9165 29.1667C43.6303 29.1667 49.1661 30.0456 54.524 31.8034C59.8829 33.5602 65.0415 35.8969 69.9998 38.8136V102.218C74.8833 99.1064 80.0662 96.8479 85.5486 95.4421C91.03 94.0363 96.5415 93.3334 102.083 93.3334C105.284 93.3334 108.187 93.5127 110.794 93.8715C113.4 94.2302 116.18 94.8437 119.134 95.7119C119.956 95.9365 120.723 95.955 121.434 95.7673C122.144 95.5806 122.5 94.9638 122.5 93.9167V32.8913C123.061 33.0031 123.597 33.1581 124.11 33.3565C124.622 33.5548 125.11 33.8183 125.574 34.1469C126.494 34.633 127.184 35.3247 127.643 36.2221C128.103 37.1204 128.333 38.1043 128.333 39.1738V96.0036C128.333 98.3145 127.348 100.109 125.377 101.388C123.406 102.667 121.251 102.921 118.909 102.15C116.211 101.103 113.453 100.345 110.636 99.874C107.821 99.4024 104.97 99.1667 102.083 99.1667C97.0422 99.1667 92.1286 99.7802 87.3423 101.007C82.5561 102.233 78.0207 104.099 73.7361 106.604C73.1596 106.941 72.5291 107.199 71.8446 107.379C71.1612 107.557 70.4714 107.647 69.7753 107.647C69.0801 107.647 68.3714 107.557 67.649 107.379ZM85.8053 83.7988C84.9828 84.524 84.0873 84.6752 83.119 84.2523C82.1507 83.8294 81.6665 83.0609 81.6665 81.9467V38.9711C81.6665 38.657 81.7394 38.3299 81.8853 37.9896C82.0311 37.6493 82.2124 37.3708 82.4292 37.154L106.659 12.9238C107.483 12.1003 108.384 11.9131 109.363 12.3623C110.343 12.8105 110.833 13.6033 110.833 14.7408V60.1621C110.833 60.5733 110.754 60.9302 110.597 61.2325C110.44 61.5358 110.254 61.7959 110.037 62.0127L85.8053 83.7988ZM64.1665 99.4467V42.2581C60.0608 39.9997 55.8146 38.2254 51.428 36.9352C47.0423 35.6451 42.5384 35 37.9165 35C34.3193 35 30.9875 35.3218 27.9211 35.9654C24.8547 36.6081 22.0916 37.4228 19.6319 38.4096C19.033 38.6342 18.528 38.9521 18.1167 39.3633C17.7055 39.7746 17.4998 40.2797 17.4998 40.8786V94.1748C17.4998 95.2219 17.8552 95.8388 18.5659 96.0254C19.2766 96.2121 20.0432 96.1562 20.8657 95.8577C23.2214 95.042 25.7768 94.4174 28.5321 93.9838C31.2884 93.5502 34.4165 93.3334 37.9165 93.3334C43.1364 93.3334 48.0403 93.9429 52.6282 95.1621C57.2171 96.3813 61.0632 97.8095 64.1665 99.4467Z" fill="white"/>
</svg>
