<svg width="130" height="130" viewBox="0 0 130 130" fill="none" xmlns="http://www.w3.org/2000/svg">
  <path fill-rule="evenodd" clip-rule="evenodd" d="M28.125 76.875C30.5433 76.875 32.5 78.8318 32.5 81.25V109.375C32.5 113.515 35.8597 116.875 40 116.875H90C94.1403 116.875 97.5 113.515 97.5 109.375V81.25C97.5 78.8318 99.4567 76.875 101.875 76.875C104.293 76.875 106.25 78.8318 106.25 81.25V109.375C106.25 118.347 99.0967 125.625 90 125.625H40C30.9033 125.625 23.75 118.347 23.75 109.375V81.25C23.75 78.8318 25.7068 76.875 28.125 76.875Z" fill="white"/>
  <path fill-rule="evenodd" clip-rule="evenodd" d="M61.9077 13.1577C63.6191 11.4475 66.3911 11.4475 68.1025 13.1577L92.4775 37.5327C94.1889 39.2441 94.1889 42.0161 92.4775 43.7275C90.7661 45.4389 87.9941 45.4389 86.2827 43.7275L69.375 26.8198V85.625C69.375 88.0433 67.4183 90 65 90C62.5817 90 60.625 88.0433 60.625 85.625V26.8198L43.7173 43.7275C42.0059 45.4389 39.2339 45.4389 37.5225 43.7275C35.8111 42.0161 35.8111 39.2441 37.5225 37.5327L61.9077 13.1577Z" fill="white"/>
</svg>
