<svg width="130" height="130" viewBox="0 0 130 130" fill="none" xmlns="http://www.w3.org/2000/svg">
  <path d="M65 8.125C71.5533 8.125 76.875 13.4467 76.875 20V32.5H53.125V20C53.125 13.4467 58.4467 8.125 65 8.125Z" fill="white"/>
  <path fill-rule="evenodd" clip-rule="evenodd" d="M16.25 40.625C9.69672 40.625 4.375 45.9467 4.375 52.5V109.375C4.375 115.928 9.69672 121.25 16.25 121.25H113.75C120.303 121.25 125.625 115.928 125.625 109.375V52.5C125.625 45.9467 120.303 40.625 113.75 40.625H16.25ZM65 49.375C58.4467 49.375 53.125 54.6967 53.125 61.25C53.125 67.8033 58.4467 73.125 65 73.125C71.5533 73.125 76.875 67.8033 76.875 61.25C76.875 54.6967 71.5533 49.375 65 49.375ZM32.5 73.125C32.5 70.7068 34.4567 68.75 36.875 68.75C39.2933 68.75 41.25 70.7068 41.25 73.125V97.5C41.25 99.9183 39.2933 101.875 36.875 101.875C34.4567 101.875 32.5 99.9183 32.5 97.5V73.125ZM93.125 68.75C90.7067 68.75 88.75 70.7068 88.75 73.125V97.5C88.75 99.9183 90.7067 101.875 93.125 101.875C95.5433 101.875 97.5 99.9183 97.5 97.5V73.125C97.5 70.7068 95.5433 68.75 93.125 68.75Z" fill="white"/>
</svg>
