<svg width="130" height="130" viewBox="0 0 130 130" fill="none" xmlns="http://www.w3.org/2000/svg">
<g clip-path="url(#clip0_solid)">
<path fill-rule="evenodd" clip-rule="evenodd" d="M22.1 10.8333C20.0696 10.8333 18.1224 11.6399 16.6867 13.0756C15.251 14.5113 14.4445 16.4585 14.4445 18.4889V119.167H32.5V101.111H61.3889V119.167H79.4445V18.4889C79.4445 16.4585 78.6379 14.5113 77.2022 13.0756C75.7665 11.6399 73.8193 10.8333 71.7889 10.8333H22.1ZM28.8889 28.8889H36.1111V36.1111H28.8889V28.8889ZM50.5555 28.8889H43.3333V36.1111H50.5555V28.8889ZM57.7778 28.8889H65V36.1111H57.7778V28.8889ZM36.1111 46.9445H28.8889V54.1667H36.1111V46.9445ZM43.3333 46.9445H50.5555V54.1667H43.3333V46.9445ZM65 46.9445H57.7778V54.1667H65V46.9445ZM28.8889 65H36.1111V72.2222H28.8889V65ZM50.5555 65H43.3333V72.2222H50.5555V65ZM57.7778 65H65V72.2222H57.7778V65ZM36.1111 83.0555H28.8889V90.2778H36.1111V83.0555ZM43.3333 83.0555H50.5555V90.2778H43.3333V83.0555ZM65 83.0555H57.7778V90.2778H65V83.0555Z" fill="white"/>
<path fill-rule="evenodd" clip-rule="evenodd" d="M83.0555 28.8889V119.167H111.944C113.86 119.167 115.697 118.406 117.051 117.051C118.406 115.697 119.167 113.86 119.167 111.944V36.1111C119.167 34.1957 118.406 32.3587 117.051 31.0042C115.697 29.6498 113.86 28.8889 111.944 28.8889H83.0555ZM90.2778 46.9445H83.0555V54.1667H90.2778V46.9445ZM97.5 46.9445H104.722V54.1667H97.5V46.9445ZM90.2778 65H83.0555V72.2222H90.2778V65ZM97.5 65H104.722V72.2222H97.5V65ZM90.2778 83.0555H83.0555V90.2778H90.2778V83.0555ZM97.5 83.0555H104.722V90.2778H97.5V83.0555Z" fill="white"/>
</g>
<defs>
<clipPath id="clip0_solid">
<rect width="130" height="130" fill="white"/>
</clipPath>
</defs>
</svg>
