<svg width="34" height="34" viewBox="4 3 26 28" fill="none" xmlns="http://www.w3.org/2000/svg">
<path fill-rule="evenodd" clip-rule="evenodd" d="M11.3333 4.95831C11.5212 4.95831 11.7014 5.03294 11.8342 5.16578C11.967 5.29862 12.0417 5.47878 12.0417 5.66665V7.08331H21.9583V5.66665C21.9583 5.47878 22.033 5.29862 22.1658 5.16578C22.2986 5.03294 22.4788 4.95831 22.6667 4.95831C22.8545 4.95831 23.0347 5.03294 23.1675 5.16578C23.3004 5.29862 23.375 5.47878 23.375 5.66665V7.08756C23.7216 7.0904 24.0304 7.10267 24.3015 7.1244C24.8186 7.1669 25.2719 7.25615 25.6912 7.46865C26.3575 7.8085 26.899 8.35053 27.2382 9.01706C27.4522 9.4364 27.5414 9.88973 27.5839 10.4054C27.625 10.9083 27.625 11.5274 27.625 12.2952V13.1041H6.375V12.2966C6.375 11.6237 6.375 11.067 6.40333 10.6009L6.41608 10.4082C6.45858 9.89115 6.54783 9.43781 6.76033 9.01848C7.09994 8.35173 7.642 7.80967 8.30875 7.47006C8.72808 7.25756 9.18142 7.16831 9.69708 7.12581C9.97003 7.10409 10.2793 7.09181 10.625 7.08898V5.66665C10.625 5.47878 10.6996 5.29862 10.8325 5.16578C10.9653 5.03294 11.1455 4.95831 11.3333 4.95831Z" fill="white"/>
<path fill-rule="evenodd" clip-rule="evenodd" d="M6.375 14.5208V23.12C6.375 23.8878 6.375 24.5083 6.41608 25.0112C6.45858 25.5269 6.54783 25.9802 6.76033 26.3996C7.10018 27.0658 7.64222 27.6073 8.30875 27.9466C8.72808 28.1605 9.18142 28.2497 9.6985 28.2922C10.1986 28.3333 10.8191 28.3333 11.5869 28.3333H22.4145C23.1809 28.3333 23.8 28.3333 24.3029 28.2922C24.8186 28.2497 25.2719 28.1605 25.6912 27.9466C26.3573 27.6071 26.8988 27.0656 27.2382 26.3996C27.4522 25.9802 27.5414 25.5269 27.5839 25.0098C27.625 24.5097 27.625 23.8892 27.625 23.1214V14.5208H6.375ZM12.0417 18.0625C12.0417 17.6868 11.8924 17.3264 11.6267 17.0607C11.361 16.7951 11.0007 16.6458 10.625 16.6458C10.2493 16.6458 9.88894 16.7951 9.62327 17.0607C9.3576 17.3264 9.20833 17.6868 9.20833 18.0625C9.20833 18.4382 9.3576 18.7985 9.62327 19.0642C9.88894 19.3299 10.2493 19.4791 10.625 19.4791C11.0007 19.4791 11.361 19.3299 11.6267 19.0642C11.8924 18.7985 12.0417 18.4382 12.0417 18.0625ZM10.625 21.6041C10.2493 21.6041 9.88894 21.7534 9.62327 22.0191C9.3576 22.2848 9.20833 22.6451 9.20833 23.0208C9.20833 23.3965 9.3576 23.7569 9.62327 24.0225C9.88894 24.2882 10.2493 24.4375 10.625 24.4375C11.0007 24.4375 11.361 24.2882 11.6267 24.0225C11.8924 23.7569 12.0417 23.3965 12.0417 23.0208C12.0417 22.6451 11.8924 22.2848 11.6267 22.0191C11.361 21.7534 11.0007 21.6041 10.625 21.6041ZM15.5833 18.0625C15.5833 17.6868 15.7326 17.3264 15.9983 17.0607C16.2639 16.7951 16.6243 16.6458 17 16.6458C17.3757 16.6458 17.7361 16.7951 18.0017 17.0607C18.2674 17.3264 18.4167 17.6868 18.4167 18.0625C18.4167 18.4382 18.2674 18.7985 18.0017 19.0642C17.7361 19.3299 17.3757 19.4791 17 19.4791C16.6243 19.4791 16.2639 19.3299 15.9983 19.0642C15.7326 18.7985 15.5833 18.4382 15.5833 18.0625ZM17 21.6041C16.6243 21.6041 16.2639 21.7534 15.9983 22.0191C15.7326 22.2848 15.5833 22.6451 15.5833 23.0208C15.5833 23.3965 15.7326 23.7569 15.9983 24.0225C16.2639 24.2882 16.6243 24.4375 17 24.4375C17.3757 24.4375 17.7361 24.2882 18.0017 24.0225C18.2674 23.7569 18.4167 23.3965 18.4167 23.0208C18.4167 22.6451 18.2674 22.2848 18.0017 22.0191C17.7361 21.7534 17.3757 21.6041 17 21.6041ZM20.5417 18.0625C20.5417 17.6868 20.6909 17.3264 20.9566 17.0607C21.2223 16.7951 21.5826 16.6458 21.9583 16.6458C22.3341 16.6458 22.6944 16.7951 22.9601 17.0607C23.2257 17.3264 23.375 17.6868 23.375 18.0625C23.375 18.4382 23.2257 18.7985 22.9601 19.0642C22.6944 19.3299 22.3341 19.4791 21.9583 19.4791C21.5826 19.4791 21.2223 19.3299 20.9566 19.0642C20.6909 18.7985 20.5417 18.4382 20.5417 18.0625Z" fill="white"/>
</svg>
