<svg width="130" height="130" viewBox="0 0 130 130" fill="none" xmlns="http://www.w3.org/2000/svg">
<path d="M102.07 42.6562C101.326 52.9826 93.666 60.9375 85.3125 60.9375C76.959 60.9375 69.2859 52.9852 68.5547 42.6562C67.793 31.9135 75.2502 24.375 85.3125 24.375C95.3748 24.375 102.832 32.109 102.07 42.6562Z" stroke="white" stroke-width="8.125" stroke-linecap="round" stroke-linejoin="round"/>
<path d="M85.3125 77.1875C68.7654 77.1875 52.8531 85.4064 48.8668 101.413C48.3387 103.53 49.6666 105.625 51.8426 105.625H118.785C120.961 105.625 122.281 103.53 121.761 101.413C117.774 85.15 101.862 77.1875 85.3125 77.1875Z" stroke="white" stroke-width="8.125" stroke-miterlimit="10"/>
<path d="M50.7812 47.2113C50.1871 55.4582 43.9969 61.9531 37.3242 61.9531C30.6515 61.9531 24.4512 55.4607 23.8672 47.2113C23.2603 38.6318 29.2855 32.5 37.3242 32.5C45.3629 32.5 51.3881 38.7893 50.7812 47.2113Z" stroke="white" stroke-width="8.125" stroke-linecap="round" stroke-linejoin="round"/>
<path d="M52.3047 77.6953C47.7217 75.5955 42.674 74.7881 37.3242 74.7881C24.1211 74.7881 11.4004 81.3516 8.21388 94.1357C7.79493 95.8268 8.85626 97.5 10.593 97.5H39.1016" stroke="white" stroke-width="8.125" stroke-miterlimit="10" stroke-linecap="round"/>
</svg>
