<svg width="130" height="130" viewBox="0 0 130 130" fill="none" xmlns="http://www.w3.org/2000/svg">
<path d="M48.75 92.0833V97.5C48.75 101.81 50.4621 105.943 53.5095 108.99C56.557 112.038 60.6903 113.75 65 113.75C69.3098 113.75 73.443 112.038 76.4905 108.99C79.538 105.943 81.25 101.81 81.25 97.5V92.0833M54.1667 27.0833C54.1667 24.2102 55.3081 21.4547 57.3397 19.423C59.3713 17.3914 62.1268 16.25 65 16.25C67.8732 16.25 70.6287 17.3914 72.6603 19.423C74.692 21.4547 75.8334 24.2102 75.8334 27.0833C82.0539 30.0247 87.3568 34.6034 91.1736 40.3287C94.9905 46.054 97.1774 52.71 97.5 59.5833V75.8333C97.9077 79.2009 99.1003 82.4257 100.982 85.2482C102.864 88.0706 105.382 90.4118 108.333 92.0833H21.6667C24.6184 90.4118 27.1365 88.0706 29.0181 85.2482C30.8997 82.4257 32.0924 79.2009 32.5 75.8333V59.5833C32.8226 52.71 35.0096 46.054 38.8264 40.3287C42.6433 34.6034 47.9461 30.0247 54.1667 27.0833Z" stroke="white" stroke-width="8" stroke-linecap="round" stroke-linejoin="round"/>
</svg>
